<svg data-v-0dd9719b="" version="1.0" xmlns="http://www.w3.org/2000/svg" xmlns:xlink="http://www.w3.org/1999/xlink" width="100%" height="100%" viewBox="0 0 340.000000 250.000000" preserveAspectRatio="xMidYMid meet" color-interpolation-filters="sRGB" style="margin: auto;"> <rect data-v-0dd9719b="" x="0" y="0" width="100%" height="100%" fill="#feffff" fill-opacity="1" class="background"></rect> <rect data-v-0dd9719b="" x="0" y="0" width="100%" height="100%" fill="url(#watermark)" fill-opacity="1" class="watermarklayer"></rect> <g data-v-0dd9719b="" fill="#333" class="iconlinesvg-g iconlinesvg" transform="translate(75.87925720214844,106.6490478515625)"><g class="tp-name"><g transform="translate(0, 0)"><g><g class="imagesvg"><g><rect fill="#333" fill-opacity="0" stroke-width="2" x="0" y="0" width="42.38188968853104" height="36.70190315609394" class="image-rect"></rect> <svg filter="url(#colors3011288342)" x="0" y="0" width="42.38188968853104" height="36.70190315609394" filtersec="colorsf3925528095" class="image-svg-svg primary" style="overflow: visible;"><svg xmlns="http://www.w3.org/2000/svg" viewBox="0 0 81.77999877929688 70.81999969482422"><title>资源 61</title><g fill="#333" fill-rule="evenodd"><path d="M61.33 0l8.18 14.16H12.27L20.45 0h40.88zM77.69 28.33l4.09 7.08-4.09 7.08H4.09L0 35.41l4.09-7.08h73.6zM69.51 56.66l-8.18 14.16H20.45l-8.18-14.16h57.24z"></path></g></svg></svg> <defs><filter id="colors3011288342"><feColorMatrix type="matrix" values="0 0 0 0 0.19921875  0 0 0 0 0.19921875  0 0 0 0 0.19921875  0 0 0 1 0" class="icon-fecolormatrix"></feColorMatrix></filter> <filter id="colorsf3925528095"><feColorMatrix type="matrix" values="0 0 0 0 0.99609375  0 0 0 0 0.99609375  0 0 0 0 0.99609375  0 0 0 1 0" class="icon-fecolormatrix"></feColorMatrix></filter> <filter id="colorsb8803425767"><feColorMatrix type="matrix" values="0 0 0 0 0  0 0 0 0 0  0 0 0 0 0  0 0 0 1 0" class="icon-fecolormatrix"></feColorMatrix></filter></defs></g></g></g></g><g transform="translate(46, 2.3899487925316496)"><g data-gra="path-name" fill="#333" transform="scale(1)"><path d="M8.19-30.58L23.57-5.85L23.57-30.58L27.58-30.58L27.58 0L22.90 0L7.35-24.74L7.19-24.74L7.19 0L3.18 0L3.18-30.58L8.19-30.58Z" transform="translate(-3.1754874651810585, 31.420612813370475)"></path></g></g><g transform="translate(74, 2.3899487925316496)"><g data-gra="path-name" fill="#333" transform="scale(1)"><path d="M7.86-3.68L26.24-3.68L26.24 0L3.68 0L3.68-30.58L25.91-30.58L25.91-27.08L7.86-27.08L7.86-17.55L24.57-17.55L24.57-13.87L7.86-13.87L7.86-3.68Z" transform="translate(-3.676880222841225, 31.420612813370475)"></path></g></g><g transform="translate(100, 2.3899487925316496)"><g data-gra="path-name" fill="#333" transform="scale(1)"><path d="M17.88-13.20L7.86-13.20L7.86 0L3.68 0L3.68-30.58L17.88-30.58Q28.08-30.58 28.08-22.40L28.08-22.40Q28.08-17.38 23.73-15.04L23.73-15.04Q27.41-14.04 27.41-9.19L27.41-9.19L27.74-3.68Q27.58-1.34 29.25-0.67L29.25-0.67L29.25 0L24.07 0Q23.57-2.17 23.40-7.69L23.40-7.69Q23.57-13.20 17.88-13.20L17.88-13.20ZM18.22-27.24L7.86-27.24L7.86-16.71L17.55-16.71Q23.73-16.71 23.73-22.06L23.73-22.06Q23.73-27.24 18.22-27.24L18.22-27.24Z" transform="translate(-3.6768802228412256, 31.420612813370475)"></path></g></g><g transform="translate(129, 2.3899487925316496)"><g data-gra="path-name" fill="#333" transform="scale(1)"><path d="M26.07-12.87L16.71-12.87L16.71-16.38L30.08-16.38L30.08 0L27.41 0L26.41-3.84Q22.90 0.33 16.38 0.50L16.38 0.50Q10.19 0.50 6.85-2.67L6.85-2.67Q1.84-7.35 2.01-15.54L2.01-15.54Q3.18-30.75 16.55-31.42L16.55-31.42Q27.91-30.75 29.58-21.39L29.58-21.39L25.57-21.39Q23.90-27.74 16.38-27.91L16.38-27.91Q6.85-27.24 6.35-15.38L6.35-15.38Q6.35-2.67 16.55-2.67L16.55-2.67Q20.22-2.67 22.90-4.68L22.90-4.68Q26.24-7.35 26.07-12.87L26.07-12.87Z" transform="translate(-2.0055710306406684, 31.420612813370475)"></path></g></g><g transform="translate(161, 2.3899487925316496)"><g data-gra="path-name" fill="#333" transform="scale(1)"><path d="M27.91-30.58L16.38-12.37L16.38 0L12.20 0L12.20-12.37L0.67-30.58L5.52-30.58L14.21-15.88L23.06-30.58L27.91-30.58Z" transform="translate(-0.6685236768802227, 31.420612813370475)"></path></g></g></g> <!----></g><defs v-gra="od"></defs></svg>